# Blender v2.90.1 OBJ File: 'Rock.blend'
# www.blender.org
o Cube_Cube.001
v 0.196279 0.217824 -0.212411
v 0.187650 0.200499 -0.457012
v 0.184715 0.169307 -0.550858
v 0.243546 0.082154 -0.444665
v 0.269399 0.146666 -0.463304
v 0.297587 0.130562 -0.396556
v 0.269584 -0.149865 -0.398530
v 0.245216 -0.147341 -0.433863
v 0.251969 -0.198969 -0.284169
v 0.250304 0.174285 0.382893
v 0.306575 -0.164368 0.285602
v 0.124936 -0.187815 0.378038
v 0.110652 -0.156182 0.456606
v -0.332662 -0.120489 -0.452289
v -0.288123 -0.176579 -0.427671
v -0.278875 -0.164647 -0.524183
v -0.163316 -0.174475 -0.586113
v -0.222468 -0.035760 -0.596272
v -0.315011 -0.016389 -0.470723
v -0.256908 -0.135442 0.397725
v -0.227184 -0.050703 0.425328
v 0.190986 0.245196 -0.007581
v 0.379887 0.097805 -0.065856
v 0.269046 0.163380 0.378019
v 0.208656 -0.007702 -0.444072
v 0.339125 0.111001 -0.215418
v 0.357447 -0.060199 -0.034902
v 0.258676 0.045788 0.527757
v 0.156484 0.031073 0.584473
v 0.011514 0.206977 0.336617
v 0.015522 0.125501 0.490840
v -0.121426 -0.236633 0.118921
v 0.018162 -0.115516 0.571802
v -0.320509 0.119750 0.308780
v -0.248003 0.253408 -0.039377
v -0.387961 0.109933 0.168676
v -0.315433 0.125201 -0.270330
v -0.230030 -0.200004 -0.075088
v -0.171892 0.007956 -0.623105
v -0.265722 0.087333 -0.506718
v -0.114671 0.148640 -0.570457
v -0.049935 0.241608 -0.316418
v 0.092455 -0.228869 -0.409885
v -0.169648 0.101377 -0.591534
v -0.161287 0.054031 -0.636183
v -0.034510 0.015252 -0.676878
v -0.005175 0.032807 -0.667959
v 0.070311 0.122126 -0.621672
v -0.355806 0.016770 0.149009
v -0.336940 -0.003708 0.014973
v -0.315143 0.070023 -0.130599
v -0.304122 0.024737 -0.199730
v -0.321140 -0.077692 -0.160830
v 0.130630 -0.177537 0.038237
v -0.092453 -0.235876 -0.054851
v 0.035896 -0.195824 0.055981
v -0.051318 -0.241232 -0.260095
v 0.362383 0.021181 -0.060851
v 0.318668 -0.033885 0.159252
v 0.361805 0.131935 0.130094
v 0.322633 0.025870 0.153593
v 0.335089 0.110050 0.301598
v 0.121269 -0.055916 0.591367
v 0.085533 0.077018 0.551017
v -0.048876 0.040240 0.496547
v 0.248060 0.179045 -0.423795
v 0.244149 -0.172329 -0.400680
v 0.323873 -0.130253 0.322465
v 0.271409 -0.142328 0.376227
v -0.248101 0.175629 -0.370016
v -0.304659 -0.129746 -0.518252
v -0.320784 -0.149033 -0.471516
v -0.306118 0.188975 0.297823
v -0.249596 0.188947 0.373754
v -0.288358 0.187935 0.338979
v -0.274705 -0.050838 0.329223
v 0.261569 0.219405 0.066671
v 0.299298 0.203191 0.073225
v 0.289437 0.161350 -0.184215
v 0.356186 0.157698 0.080491
v 0.251919 0.012314 -0.387282
v 0.259664 -0.043739 -0.374290
v 0.284303 0.048026 -0.332412
v 0.342589 -0.158149 -0.100807
v 0.284216 -0.163589 0.056450
v 0.325980 -0.152899 0.094002
v 0.355264 -0.125772 -0.077542
v 0.335800 -0.114747 0.137538
v 0.246174 -0.048291 0.519645
v 0.302688 -0.069044 0.444161
v 0.310404 0.067421 0.444018
v 0.297017 -0.003207 0.451957
v -0.082151 0.182071 0.391182
v 0.102499 0.169089 0.430750
v -0.038264 0.157673 0.423321
v 0.015276 -0.206521 0.439422
v -0.129302 -0.149742 0.456144
v -0.005907 -0.155701 0.565587
v -0.115048 -0.119718 0.541019
v -0.228367 0.051669 0.453797
v -0.158450 -0.046107 0.508437
v -0.280814 0.222144 0.162447
v -0.296573 0.234319 -0.041357
v -0.277113 0.239104 0.048499
v -0.352823 0.176080 -0.077257
v -0.279069 -0.189957 0.138874
v -0.294019 -0.159899 -0.103394
v -0.308507 -0.136458 -0.081075
v -0.317873 -0.161720 0.192532
v -0.334629 -0.108424 0.156245
v -0.304505 0.071561 -0.455727
v -0.007029 0.223447 -0.446618
v 0.118502 0.202169 -0.470477
v 0.050163 0.195545 -0.554855
v -0.123673 0.188193 -0.475122
v 0.098194 0.170059 -0.607867
v -0.075363 -0.226766 -0.432282
v -0.010453 -0.208939 -0.568876
v 0.093915 -0.166096 -0.532837
v -0.045526 -0.182061 -0.620673
v -0.011938 -0.178823 -0.620790
v -0.143747 -0.120159 -0.627460
v -0.020123 -0.112177 -0.664779
v 0.090353 -0.114072 -0.557358
v 0.054081 0.262138 -0.000680
v -0.101293 0.219865 0.170132
v -0.012370 0.264202 -0.060569
v -0.088330 0.272519 -0.125090
v 0.083159 0.225851 -0.223441
vt 0.142722 0.689269
vt 0.161728 0.776545
vt 0.192506 0.642904
vt 0.414948 0.276156
vt 0.436174 0.374088
vt 0.457766 0.272889
vt 0.060949 0.771441
vt 0.135216 0.785941
vt 0.064881 0.702323
vt 0.545935 0.507561
vt 0.472750 0.514258
vt 0.489987 0.563966
vt 0.415913 0.510552
vt 0.453204 0.623262
vt 0.481642 0.646241
vt 0.176726 0.256375
vt 0.227939 0.141237
vt 0.122249 0.250662
vt 0.189722 0.391333
vt 0.268306 0.278297
vt 0.146076 0.089725
vt 0.056118 0.135174
vt 0.960402 0.356453
vt 0.942104 0.285354
vt 0.907533 0.341658
vt 0.799719 0.242125
vt 0.855007 0.365059
vt 0.885299 0.232223
vt 0.849732 0.150339
vt 0.837377 0.224729
vt 0.932501 0.104583
vt 0.911922 0.054328
vt 0.882555 0.152454
vt 0.725717 0.824667
vt 0.709453 0.766124
vt 0.659751 0.750972
vt 0.672215 0.824935
vt 0.670865 0.586299
vt 0.720436 0.649510
vt 0.729546 0.547271
vt 0.440641 0.094194
vt 0.529172 0.074479
vt 0.443351 0.055232
vt 0.161695 0.524282
vt 0.217329 0.571204
vt 0.201342 0.513479
vt 0.038050 0.449597
vt 0.131701 0.406604
vt 0.042567 0.373233
vt 0.010565 0.413599
vt 0.452779 0.401212
vt 0.504387 0.342450
vt 0.110062 0.817655
vt 0.053532 0.872535
vt 0.570584 0.727216
vt 0.514097 0.741045
vt 0.579128 0.754874
vt 0.539302 0.625953
vt 0.777620 0.202787
vt 0.694667 0.223714
vt 0.700368 0.325392
vt 0.719437 0.411320
vt 0.753628 0.337501
vt 0.999798 0.179592
vt 0.958262 0.179235
vt 0.928787 0.230233
vt 0.626835 0.024484
vt 0.747596 0.010080
vt 0.626383 0.000202
vt 0.029440 0.337813
vt 0.011222 0.273906
vt 0.011388 0.354610
vt 0.745820 0.151698
vt 0.778592 0.093515
vt 0.811228 0.626713
vt 0.811408 0.529003
vt 0.794561 0.653700
vt 0.804077 0.735277
vt 0.767626 0.688181
vt 0.127983 0.372162
vt 0.268421 0.448328
vt 0.275699 0.411098
vt 0.626725 0.611443
vt 0.603974 0.674897
vt 0.626907 0.689719
vt 0.363818 0.288928
vt 0.675187 0.491523
vt 0.671563 0.535997
vt 0.775143 0.477409
vt 0.658698 0.324838
vt 0.622137 0.385698
vt 0.628798 0.338911
vt 0.515090 0.220010
vt 0.626090 0.310956
vt 0.588424 0.600611
vt 0.572153 0.593608
vt 0.588048 0.733666
vt 0.463626 0.741261
vt 0.425607 0.677196
vt 0.393209 0.728233
vt 0.418439 0.177828
vt 0.389387 0.154087
vt 0.618683 0.145927
vt 0.534783 0.139667
vt 0.602844 0.185487
vt 0.586973 0.230129
vt 0.604916 0.070381
vt 0.219458 0.747612
vt 0.193290 0.780400
vt 0.133390 0.706409
vt 0.219458 0.625141
vt 0.109190 0.544946
vt 0.055062 0.630804
vt 0.401028 0.317872
vt 0.516428 0.436232
vt 0.418877 0.448348
vt 0.389387 0.605822
vt 0.334696 0.207180
vt 0.252011 0.215206
vt 0.364985 0.074583
vt 0.239928 0.077772
vt 0.083921 0.508143
vt 0.023576 0.517416
vt 0.027994 0.535531
vt 0.803213 0.160353
vt 0.942838 0.163674
vt 0.984840 0.277966
vt 0.736707 0.728346
vt 0.401992 0.099498
vt 0.999798 0.370857
vt 0.033053 0.857401
vt 0.778592 0.301982
vt 0.812781 0.502993
vt 0.816050 0.484728
vt 0.352299 0.392595
vt 0.564530 0.411723
vt 0.972050 0.068355
vt 0.117105 0.510701
vt 0.187176 0.486164
vt 0.133950 0.480474
vt 0.000202 0.201589
vt 0.035102 0.258729
vt 0.791844 0.374255
vt 0.780744 0.254038
vt 0.779764 0.176307
vt 0.794354 0.090464
vt 0.816050 0.820586
vt 0.849812 0.000202
vt 0.872606 0.043380
vt 0.907801 0.009876
vt 0.110472 0.480070
vt 0.199364 0.445590
vt 0.623889 0.513182
vt 0.576418 0.492598
vt 0.603571 0.511656
vt 0.388983 0.313348
vt 0.525777 0.810047
vt 0.498978 0.838753
vt 0.472619 0.846198
vt 0.464624 0.202930
vt 0.442133 0.134059
vt 0.201093 0.026345
vt 0.053362 0.089845
vt 0.027837 0.786244
vt 0.420084 0.041317
vt 0.010019 0.531587
vt 0.361183 0.037568
vt 0.388983 0.056554
vt 0.603571 0.762784
vt 0.767910 0.325744
vt 0.778323 0.411723
vt 0.033143 0.089089
vt 0.379276 0.195061
vt 0.454335 0.770051
vt 0.223411 0.002891
vt 0.292655 0.015863
vt 0.023808 0.628096
vt 0.023066 0.717077
vt 0.443786 0.832586
vt 0.526828 0.010091
vt 0.832988 0.044165
vt 0.778996 0.250398
vt 0.024733 0.697436
vt 0.000202 0.689934
vt 0.975926 0.383795
vt 0.983290 0.062099
vt 0.203798 0.000202
vn 0.3219 0.2104 -0.9231
vn -0.4707 0.2455 -0.8474
vn 0.3619 0.0443 -0.9312
vn -0.3083 0.7722 -0.5556
vn -0.7262 0.4061 -0.5547
vn -0.3212 0.8882 -0.3283
vn -0.3641 -0.2777 -0.8890
vn -0.5499 -0.0069 -0.8351
vn 0.2173 -0.2722 -0.9373
vn -0.9762 -0.1947 0.0950
vn -0.9599 -0.2501 0.1264
vn -0.9814 -0.1376 -0.1339
vn -0.9805 0.1181 0.1569
vn -0.9790 -0.1511 -0.1370
vn -0.9988 0.0007 -0.0483
vn 0.2206 -0.9749 0.0285
vn -0.0283 -0.9995 0.0115
vn 0.1397 -0.9893 0.0421
vn 0.0383 -0.9636 0.2645
vn -0.0564 -0.9962 0.0652
vn 0.1981 -0.9695 -0.1440
vn 0.4172 -0.9057 -0.0748
vn 0.9438 0.1342 -0.3021
vn 0.9442 0.2508 -0.2131
vn 0.9144 -0.2357 -0.3290
vn 0.9789 -0.1908 -0.0727
vn 0.8997 0.0680 -0.4310
vn 0.9907 -0.1243 -0.0550
vn 0.9905 0.0598 0.1239
vn 0.9939 -0.0342 0.1048
vn 0.9623 0.2032 0.1806
vn 0.8982 0.2194 0.3808
vn 0.9756 -0.1784 0.1282
vn 0.6015 0.3039 0.7388
vn 0.1608 0.3266 0.9314
vn 0.1250 -0.2631 0.9566
vn 0.5864 -0.4247 0.6897
vn -0.4907 0.1420 0.8597
vn -0.2969 0.3954 0.8692
vn -0.5860 0.1826 0.7895
vn 0.2539 0.9483 -0.1901
vn 0.3050 0.9474 -0.0970
vn 0.5603 0.8128 -0.1592
vn 0.7365 -0.3669 -0.5683
vn 0.6134 0.3689 -0.6983
vn 0.8275 0.1776 -0.5326
vn 0.3670 -0.8065 0.4635
vn 0.4300 -0.7902 0.4367
vn 0.8480 -0.3081 0.4312
vn -0.8898 0.3252 -0.3201
vn -0.5320 0.7985 -0.2817
vn -0.6356 0.1256 -0.7617
vn -0.7830 -0.1590 -0.6013
vn -0.9863 -0.0995 -0.1314
vn -0.9243 0.1813 -0.3358
vn -0.9997 -0.0209 -0.0084
vn -0.0490 0.8977 0.4379
vn -0.0518 0.9856 0.1609
vn -0.3793 0.9172 0.1218
vn -0.6683 0.6900 0.2779
vn 0.5265 0.8501 0.0065
vn 0.7958 0.6054 0.0135
vn 0.9718 0.2098 -0.1074
vn 0.2975 0.9520 0.0718
vn 0.3392 0.8567 0.3884
vn 0.5325 -0.8373 0.1238
vn 0.6743 -0.7370 0.0452
vn 0.9114 -0.3291 0.2468
vn -0.0162 0.9697 0.2438
vn 0.0728 0.8639 0.4984
vn -0.3046 0.7557 0.5798
vn -0.1752 0.6774 0.7144
vn -0.2868 0.6646 0.6899
vn 0.2295 -0.9555 0.1849
vn -0.4345 -0.3626 0.8244
vn -0.2828 -0.9084 0.3077
vn -0.0581 -0.6433 0.7634
vn -0.2209 0.1040 0.9697
vn -0.4533 -0.8900 0.0491
vn -0.9237 -0.0604 0.3782
vn -0.8298 -0.0346 0.5570
vn -0.8922 0.0170 0.4512
vn -0.3869 0.9139 0.1228
vn -0.9303 0.3347 -0.1501
vn -0.5673 0.8222 -0.0453
vn -0.0414 0.9866 -0.1578
vn -0.2108 0.9774 -0.0178
vn -0.7060 -0.7081 0.0110
vn -0.9282 -0.3719 -0.0087
vn -0.8152 -0.5372 -0.2163
vn -0.9594 0.2217 -0.1744
vn -0.0150 0.9279 -0.3724
vn 0.2734 0.5552 -0.7855
vn 0.0529 0.9973 0.0497
vn 0.1331 0.9852 -0.1075
vn 0.0577 0.9982 0.0168
vn -0.0219 0.9981 -0.0569
vn 0.2380 0.9713 0.0019
vn -0.4676 0.6396 -0.6101
vn -0.0461 0.1549 -0.9868
vn 0.7479 -0.0826 -0.6587
vn 0.6594 -0.1686 -0.7326
vn -0.3749 -0.9265 -0.0315
vn -0.0022 -0.9999 0.0137
vn -0.4530 -0.8900 -0.0513
vn -0.1273 -0.9844 -0.1213
vn 0.8690 -0.2880 -0.4023
vn 0.7043 -0.2762 -0.6540
vn 0.9930 -0.0733 0.0929
vn 0.9716 0.1606 0.1733
vn 0.6185 0.7788 -0.1047
vn -0.1449 0.5053 0.8507
vn -0.5002 -0.6992 -0.5108
vn -0.5802 0.7060 0.4059
vn -0.7240 -0.5083 0.4663
vn 0.6453 0.6858 0.3365
vn 0.8545 -0.1275 -0.5036
vn 0.7406 -0.6692 -0.0602
vn 0.1623 -0.9862 0.0325
vn 0.9377 -0.0720 0.3399
vn -0.7867 -0.5886 0.1862
vn -0.0411 0.9785 -0.2017
vn 0.1055 0.9817 -0.1583
vn 0.1323 -0.9242 -0.3582
vn 0.5137 -0.7822 -0.3524
vn -0.3184 -0.7580 -0.5691
vn -0.1107 -0.7336 -0.6705
vn 0.5354 -0.5257 -0.6611
vn 0.3416 -0.6441 -0.6844
s 1
f 47/1/1 45/2/2 48/3/3
f 41/4/4 40/5/5 115/6/6
f 122/7/7 39/8/8 123/9/9
f 110/10/10 49/11/11 50/12/12
f 50/12/12 36/13/13 51/14/14
f 50/12/12 51/14/14 52/15/15
f 56/16/16 57/17/17 54/18/18
f 56/16/16 96/19/19 32/20/20
f 54/18/18 43/21/21 9/22/22
f 6/23/23 26/24/24 83/25/25
f 87/26/26 82/27/27 58/28/28
f 58/28/28 59/29/29 27/30/30
f 62/31/31 91/32/32 61/33/33
f 28/34/34 29/35/35 63/36/36
f 28/34/34 63/36/36 89/37/37
f 101/38/38 65/39/39 100/40/40
f 2/41/41 1/42/42 66/43/43
f 4/44/44 3/45/45 5/46/46
f 89/47/37 13/48/47 69/49/48
f 69/49/48 90/50/49 89/47/37
f 40/5/5 111/51/50 70/52/51
f 18/53/52 122/7/7 71/54/53
f 14/55/54 19/56/55 71/57/53
f 14/55/54 53/58/56 19/56/55
f 93/59/57 126/60/58 102/61/59
f 102/61/59 36/62/13 73/63/60
f 78/64/61 80/65/62 23/66/63
f 77/67/64 10/68/65 78/69/61
f 11/70/66 86/71/67 68/72/68
f 30/73/69 93/59/57 94/74/70
f 93/75/57 74/76/71 95/77/72
f 93/75/57 95/77/72 94/78/70
f 95/77/72 31/79/73 94/78/70
f 12/80/74 54/18/18 11/70/66
f 96/19/19 99/81/75 97/82/76
f 99/83/75 98/84/77 33/85/78
f 106/86/79 32/20/20 97/82/76
f 76/87/80 21/88/81 34/89/82
f 104/90/83 105/91/84 102/61/59
f 103/92/85 105/91/84 104/90/83
f 42/93/86 70/52/51 35/94/87
f 107/95/88 108/96/89 72/97/90
f 111/98/50 37/99/91 70/100/51
f 114/101/92 116/102/93 41/4/4
f 125/103/94 129/104/95 127/105/96
f 127/105/96 129/104/95 42/93/86
f 35/94/87 128/106/97 42/93/86
f 77/67/64 22/107/98 125/103/94
f 41/108/4 45/2/2 44/109/99
f 39/8/8 46/110/100 123/9/9
f 47/1/1 123/9/9 46/110/100
f 116/111/93 48/3/3 45/2/2
f 25/112/101 124/113/102 47/1/1
f 48/3/3 3/45/45 4/44/44
f 40/5/5 41/4/4 44/114/99
f 47/1/1 124/113/102 123/9/9
f 41/108/4 116/111/93 45/2/2
f 49/11/11 76/115/80 34/116/82
f 49/11/11 110/10/10 76/115/80
f 105/117/84 37/99/91 51/14/14
f 110/10/10 50/12/12 108/96/89
f 38/118/103 55/119/104 32/20/20
f 38/118/103 57/17/17 55/119/104
f 38/118/103 15/120/105 57/17/17
f 57/17/17 15/120/105 117/121/106
f 58/28/28 82/27/27 83/25/25
f 82/122/27 7/123/107 8/124/108 25/112/101
f 87/26/26 58/28/28 27/30/30
f 58/28/28 23/66/63 61/33/33
f 58/28/28 61/33/33 59/29/29
f 59/29/29 88/125/109 27/30/30
f 80/65/62 60/126/110 23/66/63
f 79/127/111 23/66/63 26/24/24
f 28/34/34 94/78/70 64/128/112
f 29/35/35 65/39/39 63/36/36
f 64/128/112 31/79/73 65/39/39
f 65/39/39 33/85/78 63/36/36
f 95/77/72 100/40/40 65/39/39
f 3/129/45 2/41/41 66/43/43
f 79/127/111 26/24/24 66/130/43
f 25/112/101 8/124/108 124/113/102
f 30/73/69 94/74/70 10/68/65
f 16/131/113 71/54/53 122/7/7
f 93/59/57 102/61/59 74/132/71
f 75/133/114 73/134/60 34/89/82
f 106/86/79 97/82/76 20/135/115
f 110/10/10 20/136/115 76/115/80
f 78/69/61 22/107/98 77/67/64
f 78/69/61 1/42/42 22/107/98
f 24/137/116 60/126/110 80/65/62
f 25/112/101 81/138/117 82/122/27
f 4/44/44 6/139/23 83/140/25
f 83/140/25 82/122/27 81/138/117
f 84/141/118 85/142/119 9/22/22
f 7/143/107 87/26/26 84/144/118
f 87/26/26 88/125/109 86/145/67
f 88/125/109 87/26/26 27/30/30
f 54/18/18 85/142/119 11/70/66
f 59/29/29 68/146/68 88/125/109
f 94/78/70 28/34/34 10/147/65
f 89/148/37 92/149/120 28/150/34
f 59/29/29 61/33/33 92/149/120
f 13/48/47 89/47/37 63/151/36
f 77/67/64 30/73/69 10/68/65
f 32/20/20 96/19/19 97/82/76
f 46/110/100 39/8/8 45/2/2
f 98/152/77 99/81/75 96/19/19
f 99/81/75 20/135/115 97/82/76
f 12/80/74 96/19/19 54/18/18
f 99/83/75 33/85/78 101/38/38
f 98/152/77 13/48/47 63/151/36
f 34/89/82 21/88/81 100/40/40
f 100/40/40 95/77/72 74/76/71
f 20/153/115 101/38/38 21/88/81
f 102/61/59 126/60/58 104/90/83
f 105/91/84 36/62/13 102/61/59
f 70/100/51 37/99/91 105/117/84
f 109/154/121 108/96/89 106/155/79
f 53/58/56 14/55/54 108/96/89
f 106/86/79 20/135/115 109/156/121
f 18/157/52 19/56/55 39/158/8
f 111/98/50 45/159/2 39/158/8
f 19/56/55 111/98/50 39/158/8
f 51/14/14 111/98/50 52/15/15
f 19/56/55 53/58/56 52/15/15
f 42/93/86 129/104/95 112/160/122
f 113/161/123 114/101/92 112/160/122
f 3/129/45 116/102/93 2/41/41
f 115/6/6 40/5/5 70/52/51
f 43/21/21 118/162/124 67/163/125
f 117/121/106 118/162/124 43/21/21
f 122/7/7 17/164/126 16/131/113
f 125/103/94 126/60/58 30/73/69
f 127/105/96 128/106/97 126/60/58
f 122/7/7 18/53/52 39/8/8
f 50/12/12 49/11/11 36/13/13
f 53/58/56 50/12/12 52/15/15
f 50/12/12 53/58/56 108/96/89
f 51/14/14 36/13/13 105/117/84
f 32/20/20 106/86/79 38/118/103
f 57/17/17 56/16/16 55/119/104
f 43/21/21 54/18/18 57/17/17
f 60/126/110 62/31/31 61/33/33
f 62/31/31 60/126/110 24/137/116
f 94/78/70 31/79/73 64/128/112
f 95/77/72 65/39/39 31/79/73
f 66/43/43 5/165/46 3/129/45
f 7/123/107 67/166/125 8/124/108
f 11/70/66 69/49/48 12/80/74
f 12/80/74 69/49/48 13/48/47
f 115/6/6 70/52/51 42/93/86
f 16/167/113 15/120/105 72/168/90
f 71/57/53 19/56/55 18/157/52
f 71/57/53 16/169/113 72/97/90
f 72/97/90 14/55/54 71/57/53
f 74/132/71 73/63/60 75/170/114
f 36/171/13 34/89/82 73/134/60
f 20/153/115 21/88/81 76/87/80
f 110/10/10 109/154/121 20/136/115
f 81/138/117 25/112/101 4/44/44
f 4/44/44 83/140/25 81/138/117
f 82/27/27 87/26/26 7/143/107
f 6/139/23 4/44/44 5/46/46
f 86/71/67 85/142/119 84/141/118
f 68/146/68 86/145/67 88/125/109
f 7/172/107 9/22/22 67/163/125
f 91/32/32 28/150/34 92/149/120
f 24/137/116 91/32/32 62/31/31
f 24/137/116 28/150/34 91/32/32
f 30/73/69 126/60/58 93/59/57
f 54/18/18 96/19/19 56/16/16
f 63/36/36 33/85/78 98/84/77
f 101/38/38 100/40/40 21/88/81
f 75/133/114 34/89/82 100/40/40
f 74/76/71 75/133/114 100/40/40
f 104/90/83 35/94/87 103/92/85
f 108/96/89 107/95/88 106/155/79
f 14/55/54 72/97/90 108/96/89
f 107/173/88 15/120/105 38/118/103
f 45/159/2 111/98/50 40/174/5
f 111/98/50 19/56/55 52/15/15
f 51/14/14 37/99/91 111/98/50
f 115/6/6 42/93/86 112/160/122
f 41/4/4 115/6/6 114/101/92
f 116/111/93 3/45/45 48/3/3
f 117/121/106 43/21/21 57/17/17
f 118/162/124 117/121/106 16/167/113
f 120/175/127 118/162/124 17/176/126
f 124/113/102 8/124/108 119/177/128
f 122/7/7 123/9/9 120/178/127
f 67/163/125 9/22/22 43/21/21
f 125/103/94 30/73/69 77/67/64
f 46/110/100 45/2/2 47/1/1
f 4/44/44 25/112/101 48/3/3
f 25/112/101 47/1/1 48/3/3
f 45/159/2 40/174/5 44/179/99
f 36/13/13 49/11/11 34/116/82
f 32/20/20 55/119/104 56/16/16
f 83/25/25 26/24/24 23/66/63
f 61/33/33 23/66/63 60/126/110
f 29/35/35 64/128/112 65/39/39
f 101/38/38 33/85/78 65/39/39
f 29/35/35 28/34/34 64/128/112
f 101/38/38 20/153/115 99/83/75
f 66/43/43 1/42/42 79/180/111
f 26/24/24 6/23/23 66/130/43
f 113/161/123 1/42/42 2/41/41
f 59/29/29 90/181/49 68/146/68
f 69/49/48 68/72/68 90/50/49
f 54/18/18 9/22/22 85/142/119
f 87/26/26 86/145/67 84/182/118
f 92/149/120 89/148/37 90/181/49
f 70/52/51 103/92/85 35/94/87
f 107/173/88 38/118/103 106/86/79
f 108/96/89 109/154/121 110/10/10
f 107/173/88 72/168/90 15/120/105
f 1/42/42 113/161/123 129/104/95
f 129/104/95 113/161/123 112/160/122
f 113/161/123 116/102/93 114/101/92
f 114/101/92 115/6/6 112/160/122
f 113/161/123 2/41/41 116/102/93
f 117/121/106 15/120/105 16/167/113
f 118/162/124 16/167/113 17/176/126
f 121/183/129 119/177/128 118/184/124
f 120/178/127 123/9/9 121/183/129
f 121/183/129 123/9/9 124/113/102
f 127/105/96 126/60/58 125/103/94
f 22/107/98 129/104/95 125/103/94
f 127/105/96 42/93/86 128/106/97
f 22/107/98 1/42/42 129/104/95
f 6/23/23 5/185/46 66/130/43
f 69/49/48 11/70/66 68/72/68
f 73/63/60 74/132/71 102/61/59
f 79/127/111 78/64/61 23/66/63
f 84/141/118 9/22/22 7/172/107
f 85/142/119 86/71/67 11/70/66
f 28/150/34 24/137/116 10/186/65
f 90/181/49 59/29/29 92/149/120
f 61/33/33 91/32/32 92/149/120
f 118/162/124 120/175/127 121/187/129
f 17/164/126 122/7/7 120/178/127
f 124/113/102 119/177/128 121/183/129
f 128/106/97 35/94/87 126/60/58
f 58/28/28 83/25/25 23/66/63
f 24/137/116 80/65/62 78/64/61 10/186/65
f 78/69/61 79/180/111 1/42/42
f 96/19/19 12/80/74 13/48/47 98/152/77
f 119/177/128 8/124/108 67/166/125 118/184/124
f 35/94/87 104/90/83 126/60/58
f 103/92/85 70/52/51 105/91/84
